<?xml version="1.0" encoding="UTF-8" standalone="no"?><!DOCTYPE svg PUBLIC "-//W3C//DTD SVG 1.1//EN" "http://www.w3.org/Graphics/SVG/1.1/DTD/svg11.dtd"><svg width="100%" height="100%" viewBox="0 0 128 128" version="1.1" xmlns="http://www.w3.org/2000/svg" xmlns:xlink="http://www.w3.org/1999/xlink" xml:space="preserve" xmlns:serif="http://www.serif.com/" style="fill-rule:evenodd;clip-rule:evenodd;stroke-linejoin:round;stroke-miterlimit:1.41421;"><rect id="Artboard1" x="0" y="0" width="128" height="128" style="fill:none;"/><clipPath id="_clip1"><rect id="Artboard11" serif:id="Artboard1" x="0" y="0" width="128" height="128"/></clipPath><g clip-path="url(#_clip1)"><path d="M102.774,25.226c-5.038,-5.039 -10.904,-8.994 -17.433,-11.755c-6.754,-2.857 -13.934,-4.306 -21.341,-4.306c-7.407,0 -14.587,1.449 -21.341,4.306c-6.529,2.761 -12.394,6.716 -17.433,11.755c-5.039,5.039 -8.994,10.904 -11.755,17.432c-0.154,0.364 -0.301,0.729 -0.447,1.095c7.449,0.532 20.921,2.331 35.155,8.32c6.646,2.796 12.713,6.205 18.168,10.183c3.317,-1.894 9.326,-4.928 17.146,-7.186c11.641,-3.361 23.32,-3.828 34.363,-1.441c-0.717,-3.755 -1.826,-7.422 -3.327,-10.971c-2.761,-6.528 -6.716,-12.393 -11.755,-17.432" style="fill:#0e73ff;fill-rule:nonzero;"/><path d="M86.335,63.79c-5.065,1.438 -9.299,3.263 -12.353,4.785c1.831,1.72 3.575,3.516 5.22,5.395c8.28,9.456 14.139,20.885 17.484,34.068c2.142,-1.595 4.175,-3.351 6.088,-5.264c5.039,-5.039 8.994,-10.904 11.756,-17.433c2.856,-6.754 4.305,-13.934 4.305,-21.341c0,-0.241 -0.006,-0.482 -0.009,-0.722c-10.331,-2.852 -21.227,-2.687 -32.491,0.512" style="fill:#48bf84;fill-rule:nonzero;"/><path d="M26.452,82.835c-5.383,-2.286 -10.691,-3.915 -15.549,-5.075c0.666,2.578 1.522,5.108 2.568,7.581c2.761,6.529 6.716,12.394 11.755,17.433c5.039,5.039 10.904,8.994 17.432,11.756c6.755,2.856 13.935,4.305 21.342,4.305c0.198,0 0.397,-0.005 0.595,-0.007c-7.46,-16.318 -20.223,-28.381 -38.143,-35.993" style="fill:#d5f776;fill-rule:nonzero;"/><path d="M87.952,110.883c-0.012,-0.047 -0.023,-0.096 -0.034,-0.143c-0.171,-0.694 -0.351,-1.38 -0.537,-2.062c-0.022,-0.081 -0.044,-0.164 -0.067,-0.245c-0.18,-0.653 -0.368,-1.299 -0.562,-1.942c-0.033,-0.108 -0.065,-0.216 -0.098,-0.324c-0.189,-0.617 -0.386,-1.23 -0.588,-1.838c-0.043,-0.129 -0.085,-0.258 -0.128,-0.385c-0.199,-0.587 -0.403,-1.168 -0.613,-1.745c-0.054,-0.146 -0.108,-0.293 -0.162,-0.439c-0.207,-0.558 -0.419,-1.11 -0.637,-1.659c-0.064,-0.16 -0.129,-0.32 -0.193,-0.48c-0.216,-0.531 -0.436,-1.059 -0.662,-1.582c-0.075,-0.173 -0.151,-0.344 -0.226,-0.515c-0.224,-0.507 -0.452,-1.011 -0.685,-1.51c-0.086,-0.182 -0.173,-0.363 -0.26,-0.544c-0.219,-0.457 -0.442,-0.912 -0.669,-1.362c-0.109,-0.217 -0.221,-0.432 -0.332,-0.648c-0.198,-0.382 -0.4,-0.763 -0.605,-1.14c-0.149,-0.275 -0.3,-0.549 -0.452,-0.822c-0.187,-0.335 -0.377,-0.667 -0.568,-0.997c-0.179,-0.308 -0.361,-0.615 -0.544,-0.919c-0.182,-0.302 -0.364,-0.602 -0.55,-0.9c-0.202,-0.323 -0.406,-0.645 -0.613,-0.965c-0.181,-0.279 -0.363,-0.558 -0.548,-0.834c-0.216,-0.324 -0.435,-0.645 -0.656,-0.964c-0.188,-0.271 -0.377,-0.541 -0.569,-0.809c-0.209,-0.292 -0.42,-0.582 -0.633,-0.871c-0.216,-0.291 -0.434,-0.582 -0.654,-0.87c-0.195,-0.255 -0.392,-0.509 -0.59,-0.761c-0.25,-0.316 -0.502,-0.63 -0.757,-0.942c-0.208,-0.253 -0.417,-0.505 -0.628,-0.756c-0.257,-0.304 -0.516,-0.606 -0.778,-0.906c-7.126,-8.15 -16.284,-14.623 -27.448,-19.364c-3.481,-1.479 -6.929,-2.68 -10.245,-3.659c-0.031,-0.009 -0.062,-0.018 -0.092,-0.027c-0.351,-0.104 -0.699,-0.204 -1.047,-0.302c-0.051,-0.014 -0.101,-0.029 -0.151,-0.043c-0.339,-0.095 -0.677,-0.188 -1.012,-0.279c-0.055,-0.014 -0.109,-0.029 -0.163,-0.044c-0.337,-0.09 -0.672,-0.178 -1.006,-0.265c-0.044,-0.011 -0.089,-0.022 -0.134,-0.034c-0.344,-0.088 -0.688,-0.175 -1.029,-0.258c-0.016,-0.004 -0.032,-0.008 -0.048,-0.012c-2.195,-0.538 -4.301,-0.981 -6.286,-1.344c-0.036,-0.007 -0.073,-0.013 -0.109,-0.02c-0.289,-0.053 -0.575,-0.103 -0.859,-0.153c-0.06,-0.01 -0.12,-0.021 -0.18,-0.031c-0.271,-0.046 -0.539,-0.091 -0.805,-0.135c-0.069,-0.011 -0.136,-0.023 -0.204,-0.034c-0.26,-0.042 -0.517,-0.083 -0.771,-0.122c-0.07,-0.011 -0.138,-0.021 -0.207,-0.032c-0.253,-0.039 -0.505,-0.077 -0.753,-0.113c-0.061,-0.009 -0.12,-0.017 -0.181,-0.026c-0.254,-0.037 -0.507,-0.073 -0.755,-0.107c-0.035,-0.005 -0.069,-0.009 -0.103,-0.014c-1.081,-0.147 -2.103,-0.27 -3.06,-0.372c-0.082,-0.009 -0.165,-0.019 -0.245,-0.027c-0.169,-0.018 -0.333,-0.034 -0.497,-0.051c-0.106,-0.01 -0.212,-0.021 -0.316,-0.031c-0.148,-0.014 -0.293,-0.028 -0.438,-0.041c-0.115,-0.011 -0.228,-0.021 -0.34,-0.031c-0.133,-0.012 -0.264,-0.023 -0.393,-0.034c-0.118,-0.01 -0.235,-0.02 -0.351,-0.03c-0.12,-0.009 -0.239,-0.018 -0.356,-0.028c-0.12,-0.009 -0.237,-0.018 -0.354,-0.026c-0.106,-0.008 -0.212,-0.016 -0.316,-0.024c-0.125,-0.008 -0.247,-0.017 -0.368,-0.025c-0.089,-0.005 -0.179,-0.011 -0.265,-0.017c-0.134,-0.009 -0.262,-0.016 -0.39,-0.023c-0.07,-0.005 -0.142,-0.01 -0.21,-0.013c-0.192,-0.011 -0.378,-0.021 -0.556,-0.03c-0.76,3.662 -1.146,7.409 -1.146,11.217c0,1.341 0.049,2.675 0.144,4.001c6.149,1.263 13.185,3.224 20.416,6.267c12.451,5.239 22.888,12.606 31.023,21.897c5.578,6.371 10.055,13.638 13.408,21.732c3.83,-0.716 7.569,-1.838 11.186,-3.368c1.059,-0.448 2.099,-0.93 3.123,-1.441c-0.163,-0.742 -0.334,-1.476 -0.513,-2.205" style="fill:#7cc9ca;fill-rule:nonzero;"/><path d="M64.992,62.257c3.317,-1.895 9.326,-4.929 17.146,-7.187c1.898,-0.548 3.796,-1.017 5.692,-1.411c-1.495,-12.074 -11.79,-21.419 -24.268,-21.419c-11.018,0 -20.332,7.286 -23.392,17.301c2.185,0.748 4.41,1.588 6.654,2.532c6.646,2.796 12.713,6.205 18.168,10.184" style="fill:#ffb436;fill-rule:nonzero;"/><path d="M114.53,85.341c-2.762,6.529 -6.717,12.394 -11.755,17.433c-1.914,1.913 -3.947,3.669 -6.089,5.264c-3.163,-12.469 -8.581,-23.366 -16.163,-32.512c-0.435,-0.524 -0.872,-1.044 -1.321,-1.556c-1.645,-1.879 -3.389,-3.675 -5.22,-5.395c3.054,-1.522 7.288,-3.347 12.353,-4.785c0.721,-0.205 1.44,-0.396 2.158,-0.577c10.498,-2.63 20.663,-2.605 30.333,0.065c0.003,0.241 0.009,0.481 0.009,0.722c0,7.407 -1.448,14.587 -4.305,21.341m-29.189,29.189c-3.616,1.529 -7.356,2.651 -11.185,3.367c-3.353,-8.094 -7.83,-15.362 -13.408,-21.732c-8.135,-9.291 -18.572,-16.658 -31.022,-21.897c-7.233,-3.043 -14.268,-5.004 -20.417,-6.267c-0.095,-1.325 -0.144,-2.659 -0.144,-4.001c0,-3.808 0.386,-7.556 1.147,-11.217c5.418,0.27 17.312,1.411 30.251,6.144c1.437,0.526 2.887,1.094 4.342,1.712c11.163,4.741 20.321,11.213 27.446,19.361c7.872,9.002 13.261,20.05 16.113,33.088c-1.023,0.511 -2.063,0.993 -3.123,1.442m-21.341,4.305c-7.406,0 -14.587,-1.449 -21.341,-4.305c-6.529,-2.762 -12.394,-6.717 -17.433,-11.756c-5.039,-5.039 -8.994,-10.904 -11.756,-17.433c-1.046,-2.473 -1.901,-5.003 -2.567,-7.581c4.857,1.16 10.166,2.789 15.549,5.075c17.921,7.611 30.684,19.675 38.143,35.993c-0.199,0.002 -0.396,0.007 -0.595,0.007m16.867,-67.906c-6.451,1.863 -11.746,4.217 -15.566,6.204c-5.119,-3.479 -10.724,-6.508 -16.699,-9.022c-0.772,-0.325 -1.556,-0.644 -2.347,-0.955c3.462,-6.159 9.982,-10.334 17.307,-10.334c8.625,0 16.111,5.812 18.806,13.689c-0.502,0.135 -1.003,0.275 -1.501,0.418m-67.397,-8.27c2.762,-6.529 6.717,-12.394 11.756,-17.433c5.039,-5.039 10.904,-8.994 17.433,-11.756c6.754,-2.856 13.935,-4.305 21.341,-4.305c7.407,0 14.587,1.449 21.341,4.305c6.529,2.762 12.394,6.717 17.434,11.756c5.038,5.039 8.993,10.904 11.755,17.433c1.501,3.548 2.609,7.215 3.326,10.97c-8.233,-1.779 -16.82,-1.967 -25.481,-0.557c-1.807,-14.491 -14.19,-25.415 -28.813,-25.415c-6.346,0 -12.374,2.011 -17.434,5.815c-4.774,3.589 -8.383,8.663 -10.207,14.322c-9.397,-2.66 -17.645,-3.666 -22.897,-4.041c0.145,-0.366 0.293,-0.731 0.446,-1.094m114.482,18.984c-0.062,-1.722 -0.192,-3.427 -0.388,-5.112c-3.7,-31.826 -30.745,-56.531 -63.564,-56.531c-35.346,0 -64,28.654 -64,64c0,0.832 0.021,1.659 0.052,2.484c0.122,3.202 0.479,6.343 1.055,9.408c5.575,29.664 31.611,52.108 62.893,52.108c1.36,0 2.71,-0.047 4.049,-0.131c3.13,-0.195 6.198,-0.614 9.19,-1.243c28.993,-6.099 50.761,-31.819 50.761,-62.626c0,-0.789 -0.019,-1.575 -0.048,-2.357" style="fill:#011627;fill-rule:nonzero;"/></g></svg>